<?xml version="1.0" encoding="UTF-8"?>
<svg version="1.1" xmlns="http://www.w3.org/2000/svg" width="500" height="500">
<path d="M0 0 C9.64403788 39.29398309 9.64403788 39.29398309 13.67160034 56.39056396 C14.11750772 58.28074062 14.56762938 60.16992149 15.01782227 62.05908203 C15.28264404 63.19071777 15.54746582 64.32235352 15.8203125 65.48828125 C16.04992676 66.46321533 16.27954102 67.43814941 16.51611328 68.44262695 C17 71 17 71 17 75 C18.9490625 75.185625 18.9490625 75.185625 20.9375 75.375 C23.43641097 75.61299152 25.69880375 75.89442533 28.07421875 76.72705078 C30.49452573 77.50860824 32.45159423 78.0016429 35 78 C38.00994591 76.2548047 39.95913168 73.81225819 42.125 71.125 C42.73118164 70.42407227 43.33736328 69.72314453 43.96191406 69.00097656 C45.66765537 67.02121321 47.33524927 65.01420903 49 63 C50.24509377 61.57901937 51.49371088 60.16109252 52.75 58.75 C53.25660156 58.16089844 53.76320313 57.57179687 54.28515625 56.96484375 C57.34768887 53.45583713 60.51667197 50.04248767 63.66796875 46.61328125 C65.22631883 44.86698945 66.72883917 43.0692881 68.171875 41.2265625 C70 39 70 39 72.0625 38.0625 C74 38 74 38 77 40 C77.16430664 42.95703125 77.16430664 42.95703125 76.84765625 46.8125 C76.7919899 47.51463623 76.73632355 48.21677246 76.67897034 48.94018555 C75.88481607 58.32350208 74.64925064 67.663533 73.4375 77 C73.20070533 78.85410714 72.96437453 80.70827359 72.72851562 82.5625 C72.15767009 87.04236592 71.58061969 91.52139084 71 96 C72.54848731 97.20571536 74.11444206 98.38902174 75.6875 99.5625 C76.99267578 100.55443359 76.99267578 100.55443359 78.32421875 101.56640625 C80.86193303 103.22128045 80.86193303 103.22128045 83.49707031 102.87890625 C86.26489309 101.90698253 88.76420174 100.74541271 91.359375 99.375 C92.89803223 98.56796631 92.89803223 98.56796631 94.46777344 97.74462891 C96.09247559 96.8810376 96.09247559 96.8810376 97.75 96 C98.86149414 95.41782715 99.97298828 94.8356543 101.11816406 94.23583984 C106.19023082 91.57384697 111.24160796 88.88161136 116.25 86.1015625 C117.01989258 85.67875 117.78978516 85.2559375 118.58300781 84.8203125 C119.9904796 84.04395131 121.39137803 83.25550713 122.78417969 82.453125 C125.74147624 80.82531148 127.54280499 79.95766713 130.953125 80.2734375 C131.62859375 80.51320313 132.3040625 80.75296875 133 81 C133.95428855 84.09509464 134.12930422 85.64612309 133.00292969 88.72875977 C132.48118164 89.70643311 131.95943359 90.68410645 131.421875 91.69140625 C130.55284546 93.34245361 130.55284546 93.34245361 129.66625977 95.02685547 C129.0276134 96.20546157 128.38885793 97.38400856 127.75 98.5625 C127.10932733 99.77162696 126.46993207 100.98143161 125.83178711 102.19189453 C122.83144614 107.85843374 119.75033914 113.47609256 116.58203125 119.05078125 C116.06995117 119.95691162 115.55787109 120.86304199 115.03027344 121.79663086 C114.07262977 123.47887882 113.10118735 125.15336789 112.11425781 126.81860352 C109.59839075 131.06677014 109.59839075 131.06677014 109.16015625 135.86328125 C109.43730469 136.56839844 109.71445312 137.27351562 110 138 C110.433125 139.3921875 110.433125 139.3921875 110.875 140.8125 C112.72728808 143.17501109 112.72728808 143.17501109 114.97875977 143.2487793 C124.02040783 143.07132067 133.036942 142.5469479 142.0625 142 C166.410179 140.52782625 166.410179 140.52782625 170 141 C172 143 172 143 172.05859375 145.78125 C170.56120762 150.33418792 167.92287633 151.86371193 164.0625 154.5 C162.60404258 155.54227808 161.14706885 156.58663467 159.69140625 157.6328125 C158.92586426 158.17711914 158.16032227 158.72142578 157.37158203 159.28222656 C153.33264986 162.20768742 149.42138234 165.29476506 145.5 168.375 C142.67191236 170.59016323 139.83900146 172.79884174 137 175 C136.26136719 175.5765332 135.52273438 176.15306641 134.76171875 176.74707031 C134.04628906 177.29717773 133.33085937 177.84728516 132.59375 178.4140625 C131.95115234 178.91115723 131.30855469 179.40825195 130.64648438 179.92041016 C129 181 129 181 127 181 C127.33 182.98 127.66 184.96 128 187 C142.36563558 190.45749195 156.7573609 193.75661128 171.20703125 196.84375 C172.35087784 197.088405 173.49472443 197.33306 174.67323303 197.58512878 C180.4572798 198.82062934 186.24290333 200.04816969 192.03051758 201.2668457 C194.18964588 201.72593317 196.34874547 202.18515573 198.5078125 202.64453125 C200.00759392 202.95668579 200.00759392 202.95668579 201.53767395 203.27514648 C202.46255112 203.47285645 203.38742828 203.67056641 204.34033203 203.87426758 C205.14697296 204.04412674 205.95361389 204.2139859 206.78469849 204.38899231 C209.04519654 205.01246577 210.94456583 205.88175909 213 207 C212.67 208.65 212.34 210.3 212 212 C209.90234375 212.46614583 207.8046875 212.93229167 205.70703125 213.3984375 C204.69082954 213.62432053 204.69082954 213.62432053 203.65409851 213.85476685 C199.7799973 214.71584745 195.90574631 215.57624566 192.03125 216.43554688 C183.63281483 218.29897964 175.23605449 220.16940419 166.84318542 222.05776978 C162.73680907 222.98128425 158.62971375 223.90157761 154.52255249 224.82159424 C152.5092104 225.27348478 150.49620819 225.72689231 148.48355103 226.18182373 C145.64613548 226.8229949 142.80758894 227.45891539 139.96875 228.09375 C139.11923264 228.28711945 138.26971527 228.48048889 137.39445496 228.67971802 C136.60879654 228.85437592 135.82313812 229.02903381 135.01367188 229.20898438 C134.33171753 229.36250366 133.64976318 229.51602295 132.94714355 229.67419434 C131 230 131 230 127 230 C128.25788787 235.52341788 130.81905694 237.98152608 135.25 241.1875 C136.52632289 242.14936653 137.80235662 243.11161686 139.078125 244.07421875 C139.73103516 244.55938965 140.38394531 245.04456055 141.05664062 245.54443359 C144.66468986 248.24684434 148.18620958 251.05980397 151.71630859 253.86279297 C154.76814144 256.27685222 157.84771665 258.63328688 160.9921875 260.92578125 C161.641875 261.40917969 162.2915625 261.89257812 162.9609375 262.390625 C164.20725431 263.31646035 165.46471897 264.22753331 166.734375 265.12109375 C168.4296875 266.39453125 168.4296875 266.39453125 171 269 C171.4453125 272.26171875 171.4453125 272.26171875 171 275 C170 276 170 276 168.07615662 276.11949158 C161.93772725 276.07480384 155.84528717 275.81386601 149.72265625 275.37890625 C148.78949081 275.31468979 147.85632538 275.25047333 146.8948822 275.18431091 C144.94274103 275.0489903 142.99071954 274.91193262 141.03881836 274.77319336 C138.04641813 274.56136157 135.05354309 274.35751445 132.06054688 274.15429688 C130.15621665 274.0213101 128.25191848 273.88786316 126.34765625 273.75390625 C125.45393814 273.6934462 124.56022003 273.63298615 123.63941956 273.57069397 C122.81103073 273.51070724 121.98264191 273.45072052 121.12915039 273.38891602 C120.40208389 273.33784195 119.6750174 273.28676788 118.92591858 273.23414612 C117 273 117 273 114 272 C113.31653318 273.65984798 112.65411685 275.32836805 112 277 C111.58137695 277.92321045 111.16275391 278.8464209 110.73144531 279.79760742 C109.68037098 283.01135464 109.68037098 283.01135464 111.17480469 285.98168945 C111.83383789 287.01511475 112.49287109 288.04854004 113.171875 289.11328125 C113.52551117 289.68084137 113.87914734 290.24840149 114.24349976 290.8331604 C115.00190638 292.04472268 115.76970746 293.25044618 116.54595947 294.45065308 C117.75515643 296.32047356 118.93888836 298.20427111 120.11669922 300.09399414 C121.67559405 302.59048514 123.24327195 305.0809808 124.82128906 307.56542969 C127.63455144 311.99562204 130.40595534 316.44882917 133.125 320.9375 C133.54362305 321.5972583 133.96224609 322.2570166 134.39355469 322.93676758 C136.14762812 325.8342171 137.04266355 327.51324765 136.7421875 330.94140625 C136.49726563 331.62074219 136.25234375 332.30007813 136 333 C132.49011062 334.30977736 130.37286169 333.95461134 127.05517578 332.50878906 C125.51182306 331.77506296 123.97553333 331.02635875 122.4453125 330.265625 C121.21565262 329.6748819 121.21565262 329.6748819 119.96115112 329.07220459 C117.34266913 327.810957 114.73383026 326.53107474 112.125 325.25 C109.52139446 323.98749967 106.91596345 322.72883101 104.31027222 321.47064209 C102.69135834 320.68716801 101.07401529 319.90043686 99.45852661 319.10992432 C97.31119488 318.06132407 95.15710334 317.02831705 93 316 C92.35206482 315.68091675 91.70412964 315.3618335 91.03656006 315.03308105 C88.57503236 313.87830239 86.61315994 312.96274968 83.86206055 313.12988281 C79.62055211 315.1118857 76.0479144 317.40540007 73 321 C72.20030305 324.59672312 72.91311499 327.68770586 73.6875 331.25 C73.94321777 332.72412354 73.94321777 332.72412354 74.20410156 334.22802734 C74.57314595 336.35485345 74.96146461 338.47840453 75.36669922 340.59863281 C76.4810357 346.5835734 77.34991262 352.60487687 78.25 358.625 C78.52976685 360.3579834 78.52976685 360.3579834 78.81518555 362.12597656 C78.98445557 363.21104492 79.15372559 364.29611328 79.328125 365.4140625 C79.4818457 366.3726416 79.63556641 367.3312207 79.79394531 368.31884766 C80.00919657 371.1196644 79.73801678 373.29771402 79 376 C78 377 78 377 75.66699219 377.27294922 C72.33477539 376.93191861 71.54745018 376.08552635 69.328125 373.6328125 C68.66828613 372.91689941 68.00844727 372.20098633 67.32861328 371.46337891 C66.6426709 370.69171387 65.95672852 369.92004883 65.25 369.125 C64.5369873 368.34431152 63.82397461 367.56362305 63.08935547 366.75927734 C61.04664457 364.51745912 59.02153037 362.26090825 57 360 C56.10262081 359.00945686 55.20437397 358.01969796 54.3046875 357.03125 C52.89893705 355.47938212 51.49875514 353.9224429 50.10546875 352.359375 C47.56718338 349.51498843 45.00382367 346.69407451 42.4375 343.875 C41.59058594 342.94429688 40.74367188 342.01359375 39.87109375 341.0546875 C39.25363281 340.37664062 38.63617188 339.69859375 38 339 C36.08574219 339.433125 36.08574219 339.433125 34.1328125 339.875 C32.4635667 340.25011142 30.79429449 340.62510533 29.125 341 C28.28324219 341.19078125 27.44148438 341.3815625 26.57421875 341.578125 C25.36572266 341.84882812 25.36572266 341.84882812 24.1328125 342.125 C23.38918457 342.29257812 22.64555664 342.46015625 21.87939453 342.6328125 C20 343 20 343 18 343 C17.90920166 344.11947021 17.81840332 345.23894043 17.72485352 346.39233398 C16.84509699 354.25888177 15.0318819 361.98469084 13.40234375 369.72265625 C13.04468325 371.43607583 12.68739441 373.14957302 12.33045959 374.86314392 C11.39545401 379.34696115 10.45544102 383.82971392 9.51434326 388.31225586 C8.55273032 392.89698543 7.59590942 397.48271466 6.63867188 402.06835938 C4.7637749 411.04655175 2.88358071 420.02362572 1 429 C-0.65 429.33 -2.3 429.66 -4 430 C-5.80080812 425.91558645 -6.80267231 421.79655546 -7.69580078 417.44335938 C-7.85214996 416.69963577 -8.00849915 415.95591217 -8.16958618 415.18965149 C-8.68280705 412.74196213 -9.18929532 410.29293793 -9.6953125 407.84375 C-10.05091946 406.13646143 -10.40678885 404.42922751 -10.76290894 402.7220459 C-11.50723275 399.14848758 -12.24819024 395.57425189 -12.98681641 391.99951172 C-13.93300924 387.42170095 -14.8878242 382.8457391 -15.84520149 378.27025604 C-16.58140428 374.74682037 -17.3128862 371.22241735 -18.04296494 367.69770813 C-18.39313437 366.01012859 -18.74479953 364.32285869 -19.09799576 362.63591003 C-19.5911449 360.27712074 -20.07788508 357.91709587 -20.56298828 355.55664062 C-20.70945801 354.86246536 -20.85592773 354.1682901 -21.00683594 353.45307922 C-21.7267784 349.91426565 -22.16000496 346.61242586 -22 343 C-26.10688477 341.4231856 -29.59283047 340.58172697 -34 341 C-37.97119756 343.98873983 -40.83540053 347.50973113 -43.82177734 351.45507812 C-45.32953906 353.43210178 -46.96349358 355.27633538 -48.625 357.125 C-49.16382813 357.74632812 -49.70265625 358.36765625 -50.2578125 359.0078125 C-53.06310342 362.21565638 -55.92960728 365.36818037 -58.78515625 368.53125 C-61.41642479 371.46416308 -64.00906527 374.42889799 -66.58984375 377.40625 C-69.75365932 380.98197507 -69.75365932 380.98197507 -72.5625 381.1875 C-75 381 -75 381 -76 380 C-77.01966199 369.95901275 -74.90395345 359.66624572 -73.5 349.75 C-73.1399752 347.18585022 -72.7822197 344.62145484 -72.43005371 342.05621338 C-72.21226953 340.47168524 -71.98998333 338.88776667 -71.7623291 337.30462646 C-71.14684432 332.84849191 -70.6407649 328.50458185 -71 324 C-73.58573406 321.86395882 -76.02223515 320.48888243 -79 319 C-81.61229067 320.11263958 -81.61229067 320.11263958 -84.58203125 321.796875 C-85.7323584 322.42134521 -86.88268555 323.04581543 -88.06787109 323.68920898 C-88.67910828 324.02572479 -89.29034546 324.3622406 -89.92010498 324.70895386 C-91.81562266 325.75171784 -93.71660469 326.78375119 -95.61962891 327.81274414 C-100.51378739 330.46088764 -105.39930102 333.12474799 -110.28173828 335.79443359 C-113.14033505 337.35320824 -116.00662713 338.89681264 -118.875 340.4375 C-119.71651611 340.90317383 -120.55803223 341.36884766 -121.42504883 341.84863281 C-125.75754939 344.16534492 -128.9421641 345.70556018 -134 345 C-134.33 344.67 -134.66 344.34 -135 344 C-134.62475176 338.60564794 -133.0388369 334.47975445 -130.46484375 329.80859375 C-130.10789932 329.14142838 -129.7509549 328.474263 -129.38319397 327.78688049 C-128.24450674 325.66492427 -127.0911484 323.55135188 -125.9375 321.4375 C-125.18981945 320.04672662 -124.44306726 318.65545373 -123.69726562 317.26367188 C-120.75630632 311.79723015 -117.80643716 306.3423834 -114.65673828 300.99267578 C-114.28424454 300.35701187 -113.91175079 299.72134796 -113.52796936 299.06642151 C-112.50537836 297.33120912 -111.47096902 295.60297701 -110.43579102 293.87524414 C-108.70216151 290.93919705 -108.70216151 290.93919705 -109 287 C-109.88502846 284.35490403 -109.88502846 284.35490403 -111.3125 281.75 C-111.95638672 280.41195312 -111.95638672 280.41195312 -112.61328125 279.046875 C-116.62090174 275.60989769 -120.93251578 276.66238322 -126 277 C-127.36357894 277.07081999 -128.72727676 277.13937545 -130.09106445 277.20605469 C-134.72922675 277.44115897 -139.36447319 277.71819931 -144 278 C-168.71024783 279.50217337 -168.71024783 279.50217337 -173 279 C-173.66 278.34 -174.32 277.68 -175 277 C-174.93460541 273.45680202 -174.18832026 272.1931162 -171.69921875 269.640625 C-170.70535156 268.85171875 -169.71148437 268.0628125 -168.6875 267.25 C-168.14988037 266.81880859 -167.61226074 266.38761719 -167.05834961 265.94335938 C-162.47701504 262.2959148 -157.79251681 258.78048488 -153.0859375 255.296875 C-149.19604333 252.401612 -145.35966773 249.44017596 -141.53271484 246.46240234 C-138.65158634 244.2303435 -135.7323002 242.12621949 -132.6875 240.125 C-131.800625 239.42375 -130.91375 238.7225 -130 238 C-130 236.68 -130 235.36 -130 234 C-130.60826693 233.94686614 -131.21653385 233.89373228 -131.84323311 233.8389883 C-137.88780856 233.27759837 -143.81962957 232.4322865 -149.79248047 231.35766602 C-150.71410477 231.19492188 -151.63572906 231.03217773 -152.58528137 230.86450195 C-155.59663053 230.33157047 -158.60694438 229.79304747 -161.6171875 229.25390625 C-163.72320883 228.87882948 -165.82925787 228.50390826 -167.93533325 228.12913513 C-172.3317119 227.34579866 -176.72754475 226.55947958 -181.12304688 225.77124023 C-186.7575476 224.76122574 -192.39364133 223.7604225 -198.03021049 222.76202488 C-202.37178364 221.9916694 -206.71232347 221.21561474 -211.0525856 220.43791008 C-213.13107531 220.0663572 -215.20991981 219.69678335 -217.28911972 219.32922554 C-220.18847254 218.8159789 -223.08630575 218.29487239 -225.98388672 217.77172852 C-227.27122963 217.54642708 -227.27122963 217.54642708 -228.58457947 217.3165741 C-229.37497116 217.17222931 -230.16536285 217.02788452 -230.97970581 216.87916565 C-231.66359312 216.75694421 -232.34748043 216.63472277 -233.0520916 216.50879765 C-235.22076034 215.94233695 -237.03262984 215.06320912 -239 214 C-238.505 212.02 -238.505 212.02 -238 210 C-203.02 203.73 -168.04 197.46 -132 191 C-131.34 187.04 -130.68 183.08 -130 179 C-131.98 178.01 -131.98 178.01 -134 177 C-136.15912354 175.38493002 -138.27318338 173.74874276 -140.375 172.0625 C-141.6287972 171.06626899 -142.88270665 170.07017925 -144.13671875 169.07421875 C-145.09650635 168.30924072 -145.09650635 168.30924072 -146.07568359 167.52880859 C-148.51608664 165.58998547 -150.97133971 163.67058315 -153.42724609 161.75146484 C-170.95364186 148.04635814 -170.95364186 148.04635814 -175 144 C-174.625 141.375 -174.625 141.375 -174 139 C-168.25905536 137.93709568 -163.03005409 138.08977195 -157.2265625 138.55859375 C-155.84179214 138.66059837 -155.84179214 138.66059837 -154.42904663 138.7646637 C-151.49378242 138.98186624 -148.55940832 139.20904845 -145.625 139.4375 C-142.69765165 139.66091561 -139.77016929 139.88210631 -136.84237671 140.09962463 C-135.02668309 140.23497296 -133.21124809 140.37385596 -131.39614868 140.51695251 C-125.91337953 140.93122713 -120.49865468 141.06135808 -115 141 C-113.75074129 137.48495336 -113.91430224 136.18818632 -115.48779297 132.73291016 C-116.22423186 131.49258202 -116.97684209 130.26176546 -117.7421875 129.0390625 C-118.14398224 128.3714389 -118.54577698 127.70381531 -118.95974731 127.01596069 C-120.25126505 124.87705848 -121.56254267 122.75110362 -122.875 120.625 C-123.72009915 119.23389163 -124.56386233 117.84197073 -125.40625 116.44921875 C-128.78080941 110.88100797 -132.17777331 105.32704639 -135.60644531 99.79199219 C-136.42795118 98.45260691 -137.24924883 97.1130939 -138.0703125 95.7734375 C-138.45202606 95.16416412 -138.83373962 94.55489075 -139.22702026 93.92715454 C-141.21069452 90.67477654 -142.77385885 87.847813 -143 84 C-142.34 83.34 -141.68 82.68 -141 82 C-133.54575524 82.06870272 -127.80090223 85.19352705 -121.25 88.5 C-119.033364 89.58889395 -116.81590351 90.67611096 -114.59765625 91.76171875 C-113.49437988 92.30489746 -112.39110352 92.84807617 -111.25439453 93.40771484 C-106.4260849 95.77007309 -101.57035951 98.0653267 -96.6875 100.3125 C-95.86475586 100.70308594 -95.04201172 101.09367187 -94.19433594 101.49609375 C-93.43282227 101.84414062 -92.67130859 102.1921875 -91.88671875 102.55078125 C-91.22889404 102.85669189 -90.57106934 103.16260254 -89.89331055 103.4777832 C-87.546332 104.12513164 -86.26933305 103.8264113 -84 103 C-82.65724831 102.01268258 -81.32267727 101.01405257 -80 100 C-79.34 100 -78.68 100 -78 100 C-78.15366783 98.97975739 -78.15366783 98.97975739 -78.31044006 97.93890381 C-79.3739388 90.86770539 -80.42658247 83.79495203 -81.47290039 76.72119141 C-81.86409673 74.08031146 -82.25980105 71.44021896 -82.6574707 68.80029297 C-83.22815873 65.0085306 -83.78888201 61.21540896 -84.34765625 57.421875 C-84.52780777 56.23946228 -84.70795929 55.05704956 -84.89356995 53.83880615 C-85.13393227 52.1875473 -85.13393227 52.1875473 -85.37915039 50.50292969 C-85.52349014 49.53474304 -85.6678299 48.5665564 -85.81654358 47.56903076 C-85.99528963 45.06596161 -85.82404814 43.35518802 -85 41 C-84 40 -84 40 -81.875 39.5 C-75.53599595 40.60243549 -71.24683629 47.81970697 -67.2109375 52.50390625 C-64.22486115 55.87511259 -61.1434613 59.1531134 -58.0625 62.4375 C-52.95304931 67.88609445 -47.92607402 73.38427562 -43 79 C-36.73 77.68 -30.46 76.36 -24 75 C-23.50185791 72.92440796 -23.50185791 72.92440796 -22.99365234 70.80688477 C-19.89331055 57.88879395 -19.89331055 57.88879395 -16.79296875 44.97070312 C-16.532276 43.88389252 -16.27158325 42.79708191 -16.00299072 41.67733765 C-15.47424785 39.4754375 -14.94441898 37.27379785 -14.41351318 35.07241821 C-13.02759366 29.31943217 -11.66335639 23.56249755 -10.33300781 17.79638672 C-10.06332184 16.63960922 -9.79363586 15.48283173 -9.51577759 14.29100037 C-8.99872724 12.07093879 -8.48820545 9.84934426 -7.98495483 7.62611389 C-7.7535379 6.63824387 -7.52212097 5.65037384 -7.28369141 4.63256836 C-7.08337311 3.75950546 -6.88305481 2.88644257 -6.67666626 1.98692322 C-5.39453665 -1.77784717 -3.24158272 -0.97247482 0 0 Z " fill="#FFBD59" transform="translate(262,19)"/>
</svg>
